<svg xmlns="http://www.w3.org/2000/svg" width="25" height="22" viewBox="0 0 25 22" fill="none">
<path d="M9.59277 12.5V11.5V12.5ZM18.0332 20.5V21.5H19.1861L19.0232 20.3587L18.0332 20.5ZM1.15234 20.5L0.162377 20.3587L-0.000525832 21.5H1.15234V20.5ZM9.59277 12.5V13.5C13.272 13.5 16.4538 16.5116 17.0432 20.6413L18.0332 20.5L19.0232 20.3587C18.3183 15.4207 14.4364 11.5 9.59277 11.5V12.5ZM18.0332 20.5V19.5H1.15234V20.5V21.5H18.0332V20.5ZM1.15234 20.5L2.14231 20.6413C2.73177 16.5116 5.91354 13.5 9.59277 13.5V12.5V11.5C4.74914 11.5 0.867206 15.4207 0.162377 20.3587L1.15234 20.5Z" fill="black"/>
<circle cx="9.25391" cy="5.5" r="4.5" stroke="black" stroke-width="2"/>
<path d="M20.0391 5.5C20.6189 5.50003 21.0889 5.96992 21.0889 6.5498V8.83398H23.3232C23.8754 8.83398 24.323 9.28187 24.3232 9.83398C24.3232 10.3863 23.8755 10.834 23.3232 10.834H21.0889V13.1191C21.0887 13.6989 20.6189 14.1689 20.0391 14.1689C19.4592 14.1689 18.9894 13.6989 18.9893 13.1191V10.834H16.7539C16.2018 10.8338 15.7539 10.3862 15.7539 9.83398C15.7541 9.28198 16.2019 8.83416 16.7539 8.83398H18.9893V6.5498C18.9893 5.96991 19.4592 5.5 20.0391 5.5Z" fill="black"/>
</svg>