<svg width="17" height="27" viewBox="0 0 17 27" fill="none" xmlns="http://www.w3.org/2000/svg">
<path d="M7.38281 1.28027C7.57972 1.11755 7.93861 0.926033 8.3916 1.03027C8.84463 1.13455 9.08349 1.46385 9.18945 1.69629C9.28371 1.9032 9.3156 2.1149 9.33105 2.25488C9.36285 2.54317 9.36133 2.93324 9.36133 3.33398V9.76172H12.165C12.8489 9.76172 13.4766 9.75985 13.9629 9.83203C14.4333 9.90188 15.0031 10.0726 15.3848 10.5928L15.459 10.7012L15.5244 10.8154C15.8251 11.386 15.7297 11.9733 15.5869 12.4268C15.4393 12.8956 15.1622 13.4583 14.8633 14.0732L10.21 23.6455C10.0347 24.006 9.86561 24.3571 9.71094 24.6025C9.63586 24.7217 9.51524 24.8989 9.33984 25.0439C9.14294 25.2067 8.78405 25.3982 8.33105 25.2939C7.87803 25.1897 7.63916 24.8604 7.5332 24.6279C7.43894 24.421 7.40706 24.2093 7.3916 24.0693C7.3598 23.781 7.36133 23.391 7.36133 22.9902V16.5625H4.55762C3.87372 16.5625 3.24604 16.5644 2.75977 16.4922C2.25803 16.4177 1.6426 16.2286 1.26367 15.623C0.884793 15.0175 0.983374 14.3813 1.13574 13.8975C1.28339 13.4286 1.56044 12.8659 1.85938 12.251L6.5127 2.67871L6.52051 2.66211L6.5293 2.64551C6.69874 2.2968 6.86183 1.95953 7.01172 1.72168C7.0868 1.60254 7.20741 1.42529 7.38281 1.28027Z" stroke="#5A5A5A" stroke-width="2"/>
</svg>
