<svg xmlns="http://www.w3.org/2000/svg" width="23" height="23" viewBox="0 0 23 23" fill="none">
<path d="M9.65234 1.69276C10.7108 0.769081 12.2892 0.769082 13.3477 1.69276L21.0381 8.40565C21.6493 8.93926 22 9.71145 22 10.5228V18.6556C22 20.2074 20.7421 21.466 19.1904 21.4662H14.6504V14.5482C14.6504 12.8915 13.307 11.5485 11.6504 11.5482H11.3496C9.69293 11.5484 8.34962 12.8915 8.34961 14.5482V21.4662H3.80957C2.25785 21.466 1 20.2074 1 18.6556V10.5228C1 9.71145 1.35069 8.93926 1.96191 8.40565L9.65234 1.69276Z" fill="black"/>
<path d="M9.65234 1.69276L8.99485 0.939294L8.99474 0.939391L9.65234 1.69276ZM13.3477 1.69276L14.0053 0.939391L14.0051 0.939293L13.3477 1.69276ZM21.0381 8.40565L21.6957 7.65233L21.6957 7.65228L21.0381 8.40565ZM19.1904 21.4662V22.4662H19.1906L19.1904 21.4662ZM14.6504 21.4662H13.6504C13.6504 22.0185 14.0981 22.4662 14.6504 22.4662V21.4662ZM14.6504 14.5482H15.6504V14.5482L14.6504 14.5482ZM11.6504 11.5482L11.6505 10.5482H11.6504V11.5482ZM11.3496 11.5482V10.5482H11.3495L11.3496 11.5482ZM8.34961 14.5482L7.34961 14.5482V14.5482H8.34961ZM8.34961 21.4662V22.4662C8.90189 22.4662 9.34961 22.0185 9.34961 21.4662H8.34961ZM3.80957 21.4662L3.80944 22.4662H3.80957V21.4662ZM1.96191 8.40565L1.30431 7.65228L1.30425 7.65233L1.96191 8.40565ZM9.65234 1.69276L10.3098 2.44622C10.9916 1.85126 12.0084 1.85126 12.6902 2.44622L13.3477 1.69276L14.0051 0.939293C12.57 -0.313098 10.43 -0.313098 8.99485 0.939294L9.65234 1.69276ZM13.3477 1.69276L12.6901 2.44612L20.3805 9.15901L21.0381 8.40565L21.6957 7.65228L14.0053 0.939391L13.3477 1.69276ZM21.0381 8.40565L20.3804 9.15896C20.774 9.50255 21 10 21 10.5228H22H23C23 9.42288 22.5246 8.37597 21.6957 7.65233L21.0381 8.40565ZM22 10.5228H21V18.6556H22H23V10.5228H22ZM22 18.6556H21C21 19.6554 20.1895 20.4661 19.1903 20.4662L19.1904 21.4662L19.1906 22.4662C21.2948 22.4659 23 20.7594 23 18.6556H22ZM19.1904 21.4662V20.4662H14.6504V21.4662V22.4662H19.1904V21.4662ZM14.6504 21.4662H15.6504V14.5482H14.6504H13.6504V21.4662H14.6504ZM14.6504 14.5482L15.6504 14.5482C15.6504 12.3391 13.8592 10.5485 11.6505 10.5482L11.6504 11.5482L11.6503 12.5482C12.7549 12.5484 13.6504 13.4439 13.6504 14.5482L14.6504 14.5482ZM11.6504 11.5482V10.5482H11.3496V11.5482V12.5482H11.6504V11.5482ZM11.3496 11.5482L11.3495 10.5482C9.14074 10.5485 7.34962 12.3391 7.34961 14.5482L8.34961 14.5482L9.34961 14.5482C9.34961 13.4439 10.2451 12.5484 11.3497 12.5482L11.3496 11.5482ZM8.34961 14.5482H7.34961V21.4662H8.34961H9.34961V14.5482H8.34961ZM8.34961 21.4662V20.4662H3.80957V21.4662V22.4662H8.34961V21.4662ZM3.80957 21.4662L3.8097 20.4662C2.81049 20.4661 2 19.6554 2 18.6556H1H0C0 20.7594 1.70522 22.4659 3.80944 22.4662L3.80957 21.4662ZM1 18.6556H2V10.5228H1H0V18.6556H1ZM1 10.5228H2C2 10 2.22602 9.50255 2.61958 9.15896L1.96191 8.40565L1.30425 7.65233C0.47537 8.37597 0 9.42288 0 10.5228H1ZM1.96191 8.40565L2.61952 9.15901L10.3099 2.44612L9.65234 1.69276L8.99474 0.939391L1.30431 7.65228L1.96191 8.40565Z" fill="black"/>
</svg>