<svg xmlns="http://www.w3.org/2000/svg" width="170" height="170" viewBox="0 0 170 170" fill="none">
<circle cx="84.96" cy="84.96" r="84.96" fill="white"/>
<path d="M84.9629 0C109.943 0.00010932 132.404 10.7822 147.949 27.9453C145.68 29.8912 143.517 31.9566 141.467 34.1299L128.452 27.0439C126.598 26.0348 124.278 26.7196 123.269 28.5732C122.26 30.4269 122.944 32.7477 124.798 33.7568L136.369 40.0566C132.989 44.3748 130.021 49.0305 127.523 53.9648L117.398 51.2793C115.358 50.7381 113.265 51.9533 112.724 53.9932C112.182 56.0331 113.398 58.1266 115.438 58.668L124.348 61.0312C120.558 70.6232 118.476 81.0756 118.476 92.0146L118.482 93.1055C118.756 114.682 127.129 134.305 140.7 149.077C125.781 162.057 106.291 169.918 84.9629 169.918C63.4004 169.918 43.7144 161.885 28.7334 148.648C34.8512 141.897 39.8898 134.15 43.5801 125.681L51.8545 130.329C53.6945 131.363 56.0237 130.709 57.0576 128.869C58.0914 127.029 57.4377 124.7 55.5977 123.666L46.3369 118.462C48.0507 113.267 49.2727 107.849 49.9492 102.262L62.8369 105.603C64.8798 106.132 66.9652 104.905 67.4951 102.862C68.0247 100.819 66.7979 98.7338 64.7549 98.2041L50.5293 94.5156C50.543 94.0465 50.5546 93.5765 50.5605 93.1055L50.5674 92.0146C50.5673 66.6173 39.3446 43.8416 21.5889 28.374C37.1469 10.9614 59.7747 0 84.9629 0ZM152.822 33.835C163.556 48.0599 169.922 65.7657 169.922 84.959C169.922 107.802 160.904 128.539 146.237 143.807C133.743 130.158 126.119 111.977 126.119 92.0146C126.119 81.7494 128.136 71.9552 131.793 63.0059L144.248 66.3105C146.288 66.8513 148.381 65.6365 148.922 63.5967C149.463 61.557 148.248 59.4644 146.208 58.9229L135.094 55.9736C137.404 51.6403 140.118 47.5553 143.185 43.7676L151.256 48.1621C153.109 49.1707 155.43 48.486 156.439 46.6328C157.449 44.7792 156.764 42.4586 154.91 41.4492L148.432 37.9219C149.841 36.5037 151.306 35.14 152.822 33.835ZM16.7529 34.2998C32.7943 48.3629 42.9238 69.0054 42.9238 92.0146C42.9238 92.1912 42.9211 92.3676 42.9199 92.5439L34.5459 90.373C32.5028 89.8435 30.4174 91.0702 29.8877 93.1133C29.3584 95.1562 30.585 97.2419 32.6279 97.7715L42.4775 100.324C41.9469 105.251 40.9496 110.037 39.5312 114.639L28.0391 108.182C26.199 107.148 23.8688 107.802 22.835 109.642C21.8014 111.482 22.455 113.812 24.2949 114.846L36.877 121.914C33.5285 129.818 28.894 137.046 23.2344 143.332C8.835 128.11 0.00390625 107.566 0.00390625 84.959C0.00390658 65.9747 6.23046 48.4446 16.7529 34.2998Z" fill="#1FBF5A"/>
<circle cx="69.0856" cy="67.613" r="15.8747" fill="white"/>
<circle cx="96.4255" cy="67.613" r="15.8747" fill="white"/>
<circle cx="65.7616" cy="67.9373" r="7.93735" fill="#0A0A0A"/>
<circle cx="91.6288" cy="67.9373" r="7.93735" fill="#0A0A0A"/>
</svg>