<svg xmlns="http://www.w3.org/2000/svg" width="23" height="23" viewBox="0 0 23 23" fill="none">
<circle cx="11.5" cy="11.5" r="10.5" stroke="black" stroke-width="2"/>
<path d="M11.5449 13.2881V12.2881H11.5449L11.5449 13.2881ZM19.9883 17.6445L20.8158 18.2059L21.1967 17.6445L20.8158 17.0831L19.9883 17.6445ZM11.5449 22.002L11.5449 23.002H11.5449V22.002ZM3.10156 17.6445L2.27399 17.0832L1.89325 17.6445L2.27394 18.2058L3.10156 17.6445ZM11.5449 13.2881V14.2881C14.7386 14.2881 17.5642 15.8527 19.1608 18.206L19.9883 17.6445L20.8158 17.0831C18.8405 14.1716 15.3898 12.2881 11.5449 12.2881V13.2881ZM19.9883 17.6445L19.1607 17.0832C17.5641 19.4369 14.7386 21.002 11.5449 21.002V22.002V23.002C15.3901 23.002 18.8406 21.1178 20.8158 18.2059L19.9883 17.6445ZM11.5449 22.002L11.545 21.002C8.35114 21.0018 5.52543 19.4369 3.92918 17.0832L3.10156 17.6445L2.27394 18.2058C4.24894 21.118 7.69983 23.0018 11.5449 23.002L11.5449 22.002ZM3.10156 17.6445L3.92914 18.2059C5.52536 15.8527 8.35119 14.2882 11.545 14.2881L11.5449 13.2881L11.5449 12.2881C7.70015 12.2882 4.2491 14.1714 2.27399 17.0832L3.10156 17.6445Z" fill="black"/>
<circle cx="11.5" cy="7.5" r="3" stroke="black" stroke-width="2"/>
</svg>