<svg xmlns="http://www.w3.org/2000/svg" width="19" height="22" viewBox="0 0 19 22" fill="none">
<mask id="path-1-inside-1_410_1916" fill="white">
<path d="M9.42309 0C13.9231 0.000189619 17.5801 3.59886 17.6789 8.0752H17.6838V14.7676L18.3791 15.6025C19.4642 16.9052 18.5374 18.8826 16.842 18.8828H2.00414C0.308657 18.8828 -0.618127 16.9053 0.467034 15.6025L1.16235 14.7676V8.0752H1.16723C1.26604 3.59874 4.92292 0 9.42309 0Z"/>
</mask>
<path d="M9.42309 0L9.42317 -2H9.42309V0ZM17.6789 8.0752L15.6794 8.11933L15.7226 10.0752H17.6789V8.0752ZM17.6838 8.0752H19.6838V6.0752H17.6838V8.0752ZM17.6838 14.7676H15.6838V15.4913L16.1469 16.0474L17.6838 14.7676ZM18.3791 15.6025L16.8423 16.8824L16.8424 16.8826L18.3791 15.6025ZM16.842 18.8828V20.8828H16.8422L16.842 18.8828ZM0.467034 15.6025L2.00373 16.8826L2.00392 16.8824L0.467034 15.6025ZM1.16235 14.7676L2.69923 16.0474L3.16235 15.4913V14.7676H1.16235ZM1.16235 8.0752V6.0752H-0.837653V8.0752H1.16235ZM1.16723 8.0752V10.0752H3.12357L3.16674 8.11933L1.16723 8.0752ZM9.42309 0L9.423 2C12.8324 2.00014 15.6045 4.72678 15.6794 8.11933L17.6789 8.0752L19.6785 8.03106C19.5557 2.47093 15.0138 -1.99976 9.42317 -2L9.42309 0ZM17.6789 8.0752V10.0752H17.6838V8.0752V6.0752H17.6789V8.0752ZM17.6838 8.0752H15.6838V14.7676H17.6838H19.6838V8.0752H17.6838ZM17.6838 14.7676L16.1469 16.0474L16.8423 16.8824L18.3791 15.6025L19.916 14.3227L19.2207 13.4877L17.6838 14.7676ZM18.3791 15.6025L16.8424 16.8826L16.8418 16.8828L16.842 18.8828L16.8422 20.8828C20.232 20.8825 22.0866 16.9286 19.9159 14.3225L18.3791 15.6025ZM16.842 18.8828V16.8828H2.00414V18.8828V20.8828H16.842V18.8828ZM2.00414 18.8828V16.8828L2.00373 16.8826L0.467034 15.6025L-1.06967 14.3225C-3.24038 16.9284 -1.38623 20.8828 2.00414 20.8828V18.8828ZM0.467034 15.6025L2.00392 16.8824L2.69923 16.0474L1.16235 14.7676L-0.374538 13.4877L-1.06985 14.3227L0.467034 15.6025ZM1.16235 14.7676H3.16235V8.0752H1.16235H-0.837653V14.7676H1.16235ZM1.16235 8.0752V10.0752H1.16723V8.0752V6.0752H1.16235V8.0752ZM1.16723 8.0752L3.16674 8.11933C3.24163 4.72658 6.01369 2 9.42309 2V0V-2C3.83216 -2 -0.709557 2.47089 -0.832283 8.03106L1.16723 8.0752Z" fill="black" mask="url(#path-1-inside-1_410_1916)"/>
<path d="M13.6328 18.8828C13.039 20.6061 11.3551 21.8183 9.42188 21.8184C7.48862 21.8183 5.80467 20.6061 5.21094 18.8828H7.46289C7.90089 19.4434 8.6025 19.8183 9.42188 19.8184C10.2412 19.8183 10.9428 19.4434 11.3809 18.8828H13.6328Z" fill="black"/>
</svg>