<svg width="13" height="10" viewBox="0 0 13 10" fill="none" xmlns="http://www.w3.org/2000/svg">
<path d="M11.6484 5.43711C12.0074 5.43711 12.2984 5.14609 12.2984 4.78711C12.2984 4.42812 12.0074 4.13711 11.6484 4.13711L11.6484 4.78711L11.6484 5.43711ZM0.188818 4.32749C-0.0650225 4.58133 -0.0650225 4.99289 0.188818 5.24673L4.32539 9.3833C4.57923 9.63714 4.99079 9.63714 5.24463 9.3833C5.49847 9.12946 5.49847 8.71791 5.24463 8.46406L1.56768 4.78711L5.24463 1.11015C5.49847 0.856313 5.49847 0.444756 5.24463 0.190916C4.99079 -0.0629254 4.57923 -0.0629254 4.32539 0.190916L0.188818 4.32749ZM11.6484 4.78711L11.6484 4.13711L0.648438 4.13711L0.648438 4.78711L0.648437 5.43711L11.6484 5.43711L11.6484 4.78711Z" fill="white"/>
</svg>
