<svg xmlns="http://www.w3.org/2000/svg" width="20" height="19" viewBox="0 0 20 19" fill="none">
<path d="M8.17571 0.00508791C12.649 -0.149387 16.5063 3.23129 16.8915 7.74142L16.9169 8.17696C16.9794 9.98807 16.4621 11.6979 15.5253 13.1174L19.3456 16.6301C19.8145 17.0614 19.8442 17.7919 19.413 18.2609C18.9818 18.7292 18.253 18.7599 17.7841 18.3293L14.0029 14.8527C12.6978 15.9864 11.0359 16.7333 9.18157 16.8918L8.74603 16.9172C4.41706 17.0667 0.665835 13.9061 0.0790348 9.61446L0.0311832 9.18185C-0.366472 4.52606 3.08536 0.429116 7.74114 0.0314551L8.17571 0.00508791ZM14.5917 7.93771C14.3024 4.55187 11.3233 2.04119 7.93743 2.33028C4.55143 2.61952 2.04081 5.59955 2.33001 8.98556C2.61946 12.3713 5.59941 14.8822 8.98528 14.593C12.371 14.3035 14.8808 11.3235 14.5917 7.93771Z" fill="#8A908B"/>
</svg>