<svg xmlns="http://www.w3.org/2000/svg" width="76" height="86" viewBox="0 0 76 86" fill="none">
<g filter="url(#filter0_d_410_2081)">
<path d="M34.8901 13.5552C32.0289 14.2537 23.5727 16.476 17.9141 23.0161L26.561 31.2071C39.1923 31.7785 63.781 31.7023 61.0852 26.8258C57.7155 20.7303 56.0624 20.4763 53.5191 18.6349C52.3747 16.2221 54.155 15.3331 53.5191 11.3329C51.7389 13.5552 49.3228 15.3331 47.0975 15.3331C47.6486 13.1108 48.42 7.993 47.0975 5.30078C44.3 8.85654 37.7512 12.8568 34.8901 13.5552Z" fill="#F27322"/>
<circle cx="37.9708" cy="47.6661" r="32.67" fill="#F27322"/>
<circle cx="31.8661" cy="40.997" r="6.10443" fill="white"/>
<circle cx="42.3779" cy="40.997" r="6.10443" fill="white"/>
<path d="M62.1934 25.7422C62.851 26.4682 63.4754 27.2246 64.0664 28.0078C57.7798 33.4186 53.7989 41.4337 53.7988 50.3789C53.7988 58.0547 56.7303 65.0456 61.5342 70.2939C60.8554 71.0005 60.1457 71.6769 59.4062 72.3203C54.1881 66.6399 50.9675 59.0953 50.8623 50.7988L50.8594 50.3789C50.8594 40.5221 55.2555 31.6924 62.1934 25.7422Z" fill="white"/>
<path d="M13.6016 25.9102C20.4289 31.858 24.7451 40.6149 24.7451 50.3809L24.7422 50.7998C24.6381 59.0159 21.4778 66.4942 16.3486 72.1553C15.6138 71.5059 14.9071 70.8255 14.2334 70.1133C18.9397 64.8858 21.8056 57.9686 21.8057 50.3809C21.8057 41.5332 17.9103 33.5963 11.7422 28.1885C12.328 27.4009 12.9487 26.6409 13.6016 25.9102Z" fill="white"/>
<path d="M50.0664 36.1367L61.1448 39.0759" stroke="white" stroke-width="2.93917" stroke-linecap="round"/>
<path d="M53.5703 26.8672L63.7444 32.4064" stroke="white" stroke-width="2.93917" stroke-linecap="round"/>
<path d="M18.2165 51.1699L29.833 54.1812M15.3633 57.8769L25.9609 63.831" stroke="white" stroke-width="2.93917" stroke-linecap="round"/>
<ellipse cx="32.526" cy="40.9611" rx="3.53775" ry="3.69157" fill="black"/>
<circle cx="41.9103" cy="40.9611" r="3.69157" fill="black"/>
</g>
<defs>
<filter id="filter0_d_410_2081" x="0.000781059" y="0.000781059" width="75.9398" height="85.6352" filterUnits="userSpaceOnUse" color-interpolation-filters="sRGB">
<feFlood flood-opacity="0" result="BackgroundImageFix"/>
<feColorMatrix in="SourceAlpha" type="matrix" values="0 0 0 0 0 0 0 0 0 0 0 0 0 0 0 0 0 0 127 0" result="hardAlpha"/>
<feOffset/>
<feGaussianBlur stdDeviation="2.65"/>
<feComposite in2="hardAlpha" operator="out"/>
<feColorMatrix type="matrix" values="0 0 0 0 0 0 0 0 0 0 0 0 0 0 0 0 0 0 0.08 0"/>
<feBlend mode="normal" in2="BackgroundImageFix" result="effect1_dropShadow_410_2081"/>
<feBlend mode="normal" in="SourceGraphic" in2="effect1_dropShadow_410_2081" result="shape"/>
</filter>
</defs>
</svg>