<svg xmlns="http://www.w3.org/2000/svg" width="90" height="90" viewBox="0 0 90 90" fill="none">
<g filter="url(#filter0_d_410_2179)">
<path d="M43.385 11.4033C43.6498 9.53352 46.3502 9.53352 46.615 11.4033C46.8553 13.1004 49.2153 13.3257 49.7724 11.7048C50.3863 9.91893 53.0378 10.43 52.944 12.3161C52.8588 14.028 55.1335 14.6959 55.9873 13.2097C56.9281 11.5723 59.435 12.5759 58.9859 14.4102C58.5783 16.075 60.6854 17.1613 61.8051 15.8636C63.0388 14.4338 65.3104 15.8937 64.5223 17.6098C63.807 19.1674 65.6705 20.6329 67.0155 19.5705C68.4975 18.4 70.4518 20.2634 69.3531 21.7994C68.356 23.1935 69.9085 24.9851 71.4303 24.1965C73.107 23.3276 74.6733 25.5272 73.3038 26.8275C72.0608 28.0077 73.2462 30.0608 74.8897 29.5744C76.7006 29.0385 77.8223 31.4948 76.2315 32.5125C74.7876 33.4361 75.563 35.6764 77.2689 35.5098C79.1484 35.3264 79.785 37.9506 78.0304 38.6487C76.4378 39.2824 76.7752 41.629 78.4818 41.7883C80.3621 41.9638 80.4905 44.6611 78.6354 45.0145C76.9518 45.3354 76.839 47.7034 78.4845 48.1828C80.2976 48.711 79.9133 51.3838 78.0249 51.3798C76.3109 51.3762 75.752 53.6801 77.2771 54.4622C78.9574 55.324 78.0743 57.8759 76.2207 57.5145C74.5383 57.1866 73.5535 59.3431 74.903 60.3997C76.39 61.564 75.0398 63.9025 73.2881 63.1969C71.6982 62.5565 70.3231 64.4877 71.4482 65.7806C72.6879 67.2052 70.9196 69.246 69.3331 68.2216C67.8931 67.2919 66.1774 68.9279 67.0375 70.4104C67.9852 72.0439 65.8626 73.7132 64.4986 72.4071C63.2607 71.2217 61.2663 72.5033 61.8303 74.1219C62.4517 75.9052 60.0516 77.1425 58.9594 75.6019C57.9682 74.2037 55.7673 75.0847 56.0148 76.7808C56.2875 78.6495 53.6966 79.4102 52.9157 77.6907C52.207 76.1301 49.8792 76.5788 49.8012 78.291C49.7153 80.1775 47.0273 80.4342 46.5859 78.598C46.1853 76.9315 43.8147 76.9315 43.4141 78.598C42.9727 80.4342 40.2847 80.1775 40.1988 78.291C40.1208 76.5788 37.793 76.1301 37.0843 77.6907C36.3034 79.4102 33.7125 78.6495 33.9852 76.7808C34.2327 75.0847 32.0318 74.2037 31.0406 75.6019C29.9484 77.1425 27.5483 75.9052 28.1697 74.1219C28.7337 72.5033 26.7393 71.2217 25.5014 72.4071C24.1374 73.7132 22.0148 72.0439 22.9625 70.4104C23.8226 68.9279 22.1069 67.2919 20.6669 68.2216C19.0804 69.246 17.3121 67.2052 18.5518 65.7806C19.6769 64.4877 18.3018 62.5565 16.7119 63.1969C14.9602 63.9025 13.61 61.564 15.097 60.3997C16.4465 59.3431 15.4617 57.1866 13.7793 57.5145C11.9257 57.8759 11.0426 55.3241 12.7229 54.4622C14.248 53.6801 13.6891 51.3762 11.9751 51.3798C10.0867 51.3838 9.70237 48.711 11.5155 48.1828C13.161 47.7034 13.0482 45.3354 11.3646 45.0145C9.50945 44.6611 9.63794 41.9638 11.5182 41.7883C13.2248 41.629 13.5622 39.2824 11.9696 38.6487C10.215 37.9506 10.8516 35.3264 12.7311 35.5098C14.437 35.6764 15.2124 33.4361 13.7685 32.5125C12.1777 31.4948 13.2994 29.0385 15.1103 29.5744C16.7538 30.0608 17.9392 28.0077 16.6962 26.8275C15.3267 25.5272 16.893 23.3276 18.5697 24.1965C20.0915 24.9851 21.644 23.1935 20.6468 21.7994C19.5482 20.2634 21.5025 18.4 22.9845 19.5705C24.3295 20.6329 26.193 19.1674 25.4777 17.6098C24.6895 15.8937 26.9612 14.4338 28.1949 15.8636C29.3146 17.1613 31.4217 16.075 31.0141 14.4102C30.565 12.5759 33.0719 11.5723 34.0127 13.2097C34.8665 14.6959 37.1412 14.028 37.056 12.3161C36.9622 10.43 39.6137 9.91893 40.2276 11.7048C40.7847 13.3257 43.1447 13.1004 43.385 11.4033Z" fill="#2C2E2B"/>
<circle cx="45.0606" cy="44.9141" r="32.5098" fill="#2C2E2B"/>
<circle cx="39.7464" cy="38.2757" r="6.0745" fill="white"/>
<circle cx="50.2073" cy="38.2757" r="6.0745" fill="white"/>
<path d="M69.165 23.0977C69.8192 23.8199 70.4404 24.5724 71.0283 25.3516C64.7726 30.7357 60.8117 38.7121 60.8115 47.6133C60.8115 55.2515 63.7293 62.208 68.5098 67.4307C67.8341 68.1341 67.1277 68.8077 66.3916 69.4482C61.1987 63.7956 57.9943 56.2874 57.8896 48.0312L57.8867 47.6133C57.8869 37.8049 62.2612 29.0187 69.165 23.0977Z" fill="#DE0601"/>
<path d="M20.8115 23.2617C27.6053 29.1803 31.9002 37.8945 31.9004 47.6123L31.8975 48.0303C31.7938 56.2062 28.649 63.6479 23.5449 69.2812C22.8135 68.635 22.111 67.9569 21.4404 67.248C26.1233 62.0462 28.9746 55.1626 28.9746 47.6123C28.9745 38.8083 25.0987 30.9105 18.9609 25.5293C19.544 24.7454 20.1617 23.989 20.8115 23.2617Z" fill="#DE0601"/>
<path d="M25.4017 48.4004L36.9613 51.3969M22.5625 55.0744L33.1081 60.9994" stroke="#DE0601" stroke-width="2.92476" stroke-linecap="round"/>
<ellipse cx="40.2548" cy="38.2418" rx="3.52041" ry="3.67347" fill="#0D0D0D"/>
<circle cx="49.5914" cy="38.2418" r="3.67347" fill="#0D0D0D"/>
<path d="M55.1033 31.6836L56.4809 37.0407L44.7717 38.1122L33.0625 37.0407L33.3686 31.6836H55.1033Z" fill="#2C2E2B"/>
<path d="M81.8704 29.8945L49.993 32.3337C48.9388 32.4144 48.6056 30.9427 49.5918 30.5615L75.8253 20.4195C76.7345 20.068 77.4928 21.1882 76.8288 21.9017L74.5602 24.3393C74.101 24.8327 74.312 25.6361 74.9544 25.8402L82.0784 28.1036C83.0404 28.4092 82.8769 29.8175 81.8704 29.8945Z" fill="#D51910"/>
<path d="M8.68818 29.8945L40.5656 32.3337C41.6198 32.4144 41.953 30.9427 40.9668 30.5615L14.7333 20.4195C13.8241 20.068 13.0658 21.1882 13.7298 21.9017L15.9984 24.3393C16.4576 24.8327 16.2466 25.6361 15.6042 25.8402L8.48016 28.1036C7.51817 28.4092 7.68174 29.8175 8.68818 29.8945Z" fill="#D51910"/>
</g>
<defs>
<filter id="filter0_d_410_2179" x="2.53984" y="4.70195" width="85.4789" height="80.4457" filterUnits="userSpaceOnUse" color-interpolation-filters="sRGB">
<feFlood flood-opacity="0" result="BackgroundImageFix"/>
<feColorMatrix in="SourceAlpha" type="matrix" values="0 0 0 0 0 0 0 0 0 0 0 0 0 0 0 0 0 0 127 0" result="hardAlpha"/>
<feOffset/>
<feGaussianBlur stdDeviation="2.65"/>
<feComposite in2="hardAlpha" operator="out"/>
<feColorMatrix type="matrix" values="0 0 0 0 0 0 0 0 0 0 0 0 0 0 0 0 0 0 0.08 0"/>
<feBlend mode="normal" in2="BackgroundImageFix" result="effect1_dropShadow_410_2179"/>
<feBlend mode="normal" in="SourceGraphic" in2="effect1_dropShadow_410_2179" result="shape"/>
</filter>
</defs>
</svg>