<svg xmlns="http://www.w3.org/2000/svg" width="89" height="84" viewBox="0 0 89 84" fill="none">
<g filter="url(#filter0_d_410_2046)">
<circle cx="75.2621" cy="49.2895" r="8.03947" fill="#FDE1CE"/>
<circle cx="13.3403" cy="49.2895" r="8.03947" fill="#FDE1CE"/>
<circle cx="44.3703" cy="45.8703" r="32.6711" fill="#FDE1CE"/>
<circle cx="38.0407" cy="39.1989" r="6.15789" fill="white"/>
<circle cx="48.6462" cy="39.1989" r="6.15789" fill="white"/>
<path d="M68.502 23.9102C69.1599 24.6366 69.7847 25.3932 70.376 26.1768C64.085 31.5912 60.1016 39.6122 60.1016 48.5635C60.1016 56.2447 63.0354 63.2402 67.8428 68.4922C67.1632 69.1996 66.4523 69.8764 65.7119 70.5205C60.4901 64.8363 57.2683 57.2855 57.1631 48.9834L57.1602 48.5635C57.1602 38.7 61.5594 29.8645 68.502 23.9102Z" fill="#C30452"/>
<path d="M19.8809 24.0762C26.7128 30.028 31.0312 38.791 31.0312 48.5635L31.0293 48.9834C30.9251 57.2051 27.7625 64.6886 22.6299 70.3535C21.8943 69.7036 21.187 69.0225 20.5127 68.3096C25.2222 63.0785 28.0898 56.1564 28.0898 48.5635C28.0898 39.7096 24.1921 31.7669 18.0195 26.3555C18.6058 25.5674 19.2276 24.8074 19.8809 24.0762Z" fill="#C30452"/>
<path d="M56.5117 34.4082L67.4591 37.145" stroke="#C30452" stroke-width="3.26855" stroke-linecap="round"/>
<path d="M59.9336 25.1719L70.1968 30.6456" stroke="#C30452" stroke-width="3.26855" stroke-linecap="round"/>
<path d="M24.4504 49.4609L35.9856 52.4715M21.6172 56.1662L32.1405 62.1188" stroke="#C30452" stroke-width="3.26855" stroke-linecap="round"/>
<ellipse cx="38.8968" cy="39.1987" rx="3.59211" ry="3.76316" fill="#0D0D0D"/>
<circle cx="48.3022" cy="39.1987" r="3.76316" fill="#0D0D0D"/>
<path d="M36.6348 31.9069C37.4555 27.4545 36.1295 19.8907 34.7621 17.28L57.4982 18.7257C57.3445 21.1421 56.2865 23.229 52.5262 29.0049C50.0802 32.7618 47.0566 34.9805 43.459 36.4483C43.951 33.6417 45.6412 26.9443 44.1697 25.2729C42.8649 27.1563 39.5313 31.1199 36.6348 31.9069Z" fill="#2B2B29"/>
<path d="M67.8276 45.3536C68.0123 44.6838 68.9622 44.6838 69.1469 45.3536L69.8463 47.8907C69.9311 48.1986 70.2177 48.4068 70.5368 48.3924L73.1658 48.2736C73.8599 48.2422 74.1534 49.1456 73.5735 49.5282L71.3767 50.9774C71.1101 51.1532 71.0006 51.4901 71.1129 51.7891L72.0384 54.2527C72.2827 54.9032 71.5142 55.4615 70.9711 55.0282L68.914 53.3867C68.6644 53.1875 68.3101 53.1875 68.0605 53.3867L66.0034 55.0282C65.4603 55.4615 64.6918 54.9032 64.9361 54.2527L65.8616 51.7891C65.9739 51.4901 65.8644 51.1532 65.5978 50.9774L63.401 49.5282C62.8211 49.1456 63.1146 48.2422 63.8087 48.2736L66.4377 48.3924C66.7568 48.4068 67.0434 48.1986 67.1282 47.8907L67.8276 45.3536Z" fill="#C30452"/>
<path d="M47.6268 5.30078C51.2207 5.30078 62.8749 7.38521 66.7088 11.4873C70.5424 15.5896 77.0974 29.0506 75.66 36.1758C74.4273 32.2121 56.6816 30.4325 44.5116 30.167C32.3415 30.4326 14.5963 32.2122 13.3641 36.1758C11.9268 29.0506 19.428 15.0769 23.2616 10.9746C27.0951 6.8724 37.803 5.30086 41.3973 5.30078H47.6268Z" fill="#2B2B29"/>
<path d="M17.2086 29.7012C22.4418 27.2408 32.9087 23.5495 68.858 31.1357C72.2706 31.856 75.4553 34.758 75.6832 36.0566H75.6149C74.0627 32.1778 56.5578 30.4308 44.5123 30.168C32.4666 30.4308 14.9604 32.1776 13.4088 36.0566H13.3414C13.3404 36.0514 13.3395 36.0462 13.3385 36.041C13.1175 34.3966 13.8 31.3038 17.2086 29.7012Z" fill="#C30452"/>
</g>
<defs>
<filter id="filter0_d_410_2046" x="0.000781059" y="0.000781059" width="88.6" height="83.8402" filterUnits="userSpaceOnUse" color-interpolation-filters="sRGB">
<feFlood flood-opacity="0" result="BackgroundImageFix"/>
<feColorMatrix in="SourceAlpha" type="matrix" values="0 0 0 0 0 0 0 0 0 0 0 0 0 0 0 0 0 0 127 0" result="hardAlpha"/>
<feOffset/>
<feGaussianBlur stdDeviation="2.65"/>
<feComposite in2="hardAlpha" operator="out"/>
<feColorMatrix type="matrix" values="0 0 0 0 0 0 0 0 0 0 0 0 0 0 0 0 0 0 0.08 0"/>
<feBlend mode="normal" in2="BackgroundImageFix" result="effect1_dropShadow_410_2046"/>
<feBlend mode="normal" in="SourceGraphic" in2="effect1_dropShadow_410_2046" result="shape"/>
</filter>
</defs>
</svg>