<svg xmlns="http://www.w3.org/2000/svg" width="86" height="80" viewBox="0 0 86 80" fill="none">
<g filter="url(#filter0_d_410_2202)">
<circle cx="47.5754" cy="41.2649" r="32.7239" fill="white"/>
<path d="M52.4717 28.0859C56.4041 28.0862 59.5811 31.3432 59.5811 35.3457C59.5806 39.3478 56.4038 42.6043 52.4717 42.6045C50.0385 42.6044 47.8954 41.3569 46.6143 39.458C45.3332 41.3567 43.1909 42.6045 40.7578 42.6045C36.8258 42.6041 33.6489 39.3477 33.6484 35.3457C33.6484 31.3433 36.8256 28.0863 40.7578 28.0859C43.1909 28.0859 45.3332 29.3337 46.6143 31.2324C47.8954 29.3335 50.0385 28.086 52.4717 28.0859ZM59.2373 34.6338C59.2605 34.8675 59.2725 35.1047 59.2725 35.3447L59.2734 35.3457C59.2734 35.1058 59.2615 34.8684 59.2383 34.6348C59.2281 34.5324 59.2137 34.431 59.1992 34.3301C59.2136 34.4307 59.2272 34.5318 59.2373 34.6338Z" fill="#B6B6B6" fill-opacity="0.57"/>
<path d="M51.9922 28.1621C55.5392 28.1622 58.4149 31.038 58.415 34.585C58.4148 38.1319 55.5391 41.0078 51.9922 41.0078C49.8127 41.0077 47.8878 39.921 46.7266 38.2607C45.5653 39.9207 43.6411 41.0077 41.4619 41.0078C37.915 41.0077 35.0393 38.1318 35.0391 34.585C35.0392 31.038 37.915 28.1622 41.4619 28.1621C43.6409 28.1622 45.5653 29.2486 46.7266 30.9082C47.8878 29.2483 49.8129 28.1622 51.9922 28.1621ZM40.8359 28.502H40.8369C40.9397 28.4915 41.0432 28.4838 41.1475 28.4785H41.1465C41.0423 28.4838 40.9387 28.4915 40.8359 28.502Z" fill="white"/>
<path d="M71.8369 19.3047C72.4956 20.0319 73.1209 20.7897 73.7129 21.5742C67.4159 26.9939 63.4287 35.0225 63.4287 43.9824C63.4287 51.671 66.3647 58.6736 71.1768 63.9307C70.4969 64.6384 69.7856 65.3155 69.0449 65.96C63.8181 60.2702 60.5926 52.7126 60.4873 44.4023L60.4844 43.9824C60.4844 34.1093 64.8875 25.2648 71.8369 19.3047Z" fill="#012854"/>
<path d="M23.168 19.4727C30.0062 25.4303 34.329 34.2017 34.3291 43.9834L34.3262 44.4033C34.2219 52.6331 31.0567 60.1245 25.9189 65.7949C25.1827 65.1444 24.4757 64.4616 23.8008 63.748C28.5144 58.512 31.3848 51.5833 31.3848 43.9834C31.3847 35.1211 27.4831 27.1706 21.3047 21.7539C21.8915 20.9651 22.514 20.2046 23.168 19.4727Z" fill="#012854"/>
<path d="M59.6914 29.7168L70.7881 32.6608" stroke="#012854" stroke-width="2.94402" stroke-linecap="round"/>
<path d="M63.2031 20.4316L73.3939 25.98" stroke="#012854" stroke-width="2.94402" stroke-linecap="round"/>
<path d="M27.7876 44.7754L39.4233 47.7916M24.9297 51.4934L35.5447 57.4573" stroke="#012854" stroke-width="2.94402" stroke-linecap="round"/>
<circle cx="42.3385" cy="34.5494" r="3.05725" fill="black"/>
<ellipse cx="42.1217" cy="34.5746" rx="3.54359" ry="3.69766" fill="#0D0D0D"/>
<circle cx="51.5219" cy="34.5746" r="3.69766" fill="#0D0D0D"/>
<path d="M26.2539 16.5923C33.0537 14.0693 70.2155 25.7139 80.178 35.8064C79.2292 8.05261 41.9093 -6.11553 26.2539 16.5923Z" fill="#012854"/>
<path d="M22.2006 9.67961C27.6408 9.24218 36.983 10.8429 41.0448 20.4475C37.3892 21.5408 33.7335 24.0493 30.8902 28.4514C24.1303 24.9406 21.4495 33.0845 19.9473 37.6558C18.6329 34.3645 17.018 27.0139 21.0739 23.942C19.9473 23.3934 10.3707 25.0391 5.30078 29.976C5.30078 27.2333 9.8074 16.8108 18.8206 14.6166C17.018 13.3001 11.3096 14.068 8.68074 14.6166C10.9341 12.7881 16.7923 10.1145 22.2006 9.67961Z" fill="white"/>
</g>
<defs>
<filter id="filter0_d_410_2202" x="0.000781059" y="0.000781059" width="85.6" height="79.2875" filterUnits="userSpaceOnUse" color-interpolation-filters="sRGB">
<feFlood flood-opacity="0" result="BackgroundImageFix"/>
<feColorMatrix in="SourceAlpha" type="matrix" values="0 0 0 0 0 0 0 0 0 0 0 0 0 0 0 0 0 0 127 0" result="hardAlpha"/>
<feOffset/>
<feGaussianBlur stdDeviation="2.65"/>
<feComposite in2="hardAlpha" operator="out"/>
<feColorMatrix type="matrix" values="0 0 0 0 0 0 0 0 0 0 0 0 0 0 0 0 0 0 0.08 0"/>
<feBlend mode="normal" in2="BackgroundImageFix" result="effect1_dropShadow_410_2202"/>
<feBlend mode="normal" in="SourceGraphic" in2="effect1_dropShadow_410_2202" result="shape"/>
</filter>
</defs>
</svg>