<svg xmlns="http://www.w3.org/2000/svg" width="76" height="91" viewBox="0 0 76 91" fill="none">
<g filter="url(#filter0_d_410_2157)">
<path d="M35.9335 6.59344C36.6847 4.86874 39.1309 4.86875 39.8821 6.59345L48.0513 25.3497C48.6708 26.772 47.6284 28.363 46.077 28.363H29.7386C28.1872 28.363 27.1448 26.772 27.7643 25.3497L35.9335 6.59344Z" fill="#FFDEA2"/>
<circle cx="37.9708" cy="52.7305" r="32.67" fill="#9BC9D9"/>
<path d="M44.3711 53.7969C45.9151 55.3409 48.4184 55.3409 49.9624 53.7969C51.5064 52.2529 51.5064 49.7496 49.9624 48.2056C49.0782 51.7554 47.8002 52.9201 44.3711 53.7969Z" fill="#4F7BC3"/>
<path d="M31.5312 53.7969C29.9872 55.3409 27.4839 55.3409 25.9399 53.7969C24.3959 52.2529 24.3959 49.7496 25.9399 48.2056C26.8241 51.7554 28.1022 52.9201 31.5312 53.7969Z" fill="#4F7BC3"/>
<circle cx="32.6318" cy="46.6786" r="6.10443" fill="white"/>
<circle cx="43.1435" cy="46.6786" r="6.10443" fill="white"/>
<path d="M62.1934 31.4238C62.851 32.1499 63.4754 32.9062 64.0664 33.6895C57.7798 39.1002 53.7989 47.1154 53.7988 56.0605C53.7988 63.7363 56.7303 70.7272 61.5342 75.9756C60.8554 76.6822 60.1457 77.3586 59.4062 78.002C54.1881 72.3216 50.9675 64.7769 50.8623 56.4805L50.8594 56.0605C50.8594 46.2038 55.2555 37.3741 62.1934 31.4238Z" fill="#305289"/>
<path d="M13.6016 31.5898C20.4289 37.5377 24.7451 46.2946 24.7451 56.0605L24.7422 56.4805C24.638 64.6966 21.4779 72.1749 16.3486 77.8359C15.6138 77.1866 14.9081 76.5052 14.2344 75.793C18.9403 70.5655 21.8057 63.648 21.8057 56.0605C21.8056 47.2129 17.9103 39.2759 11.7422 33.8682C12.328 33.0806 12.9487 32.3206 13.6016 31.5898Z" fill="#305289"/>
<path d="M50.0664 41.8164L61.1448 44.7556" stroke="#305289" stroke-width="2.93917" stroke-linecap="round"/>
<path d="M53.5703 32.5469L63.7444 38.0861" stroke="#305289" stroke-width="2.93917" stroke-linecap="round"/>
<path d="M18.2165 56.8516L29.833 59.8628M15.3633 63.5585L25.9609 69.5126" stroke="#305289" stroke-width="2.93917" stroke-linecap="round"/>
<ellipse cx="32.526" cy="46.6427" rx="3.53775" ry="3.69157" fill="#0D0D0D"/>
<circle cx="41.9103" cy="46.6427" r="3.69157" fill="#0D0D0D"/>
</g>
<defs>
<filter id="filter0_d_410_2157" x="0.000781059" y="0.000781059" width="75.9398" height="90.6996" filterUnits="userSpaceOnUse" color-interpolation-filters="sRGB">
<feFlood flood-opacity="0" result="BackgroundImageFix"/>
<feColorMatrix in="SourceAlpha" type="matrix" values="0 0 0 0 0 0 0 0 0 0 0 0 0 0 0 0 0 0 127 0" result="hardAlpha"/>
<feOffset/>
<feGaussianBlur stdDeviation="2.65"/>
<feComposite in2="hardAlpha" operator="out"/>
<feColorMatrix type="matrix" values="0 0 0 0 0 0 0 0 0 0 0 0 0 0 0 0 0 0 0.08 0"/>
<feBlend mode="normal" in2="BackgroundImageFix" result="effect1_dropShadow_410_2157"/>
<feBlend mode="normal" in="SourceGraphic" in2="effect1_dropShadow_410_2157" result="shape"/>
</filter>
</defs>
</svg>