<svg xmlns="http://www.w3.org/2000/svg" width="104" height="76" viewBox="0 0 104 76" fill="none">
<g filter="url(#filter0_d_410_2130)">
<path d="M82.1588 20.5718L83.3876 15.6636C83.7434 14.2426 82.4939 12.9372 81.0587 13.2306L67.6947 15.9621C66.7589 16.1534 66.091 16.9825 66.1033 17.9376L66.68 62.4841C66.6866 62.9935 67.1014 63.4031 67.6109 63.4031C67.7202 63.4031 67.8286 63.3838 67.9312 63.3462L76.2574 60.2961C76.5144 60.2019 76.7882 60.1618 77.0614 60.1782L89.4135 60.9213C91.048 61.0196 92.0951 59.212 91.1968 57.8431L85.4549 49.0931C84.7766 48.0594 85.1951 46.6639 86.3304 46.1741L97.371 41.4107C98.9733 40.7194 98.9733 38.4476 97.371 37.7563L87.0534 33.3048C85.7094 32.7249 85.4303 30.9413 86.533 29.9786L90.4781 26.5342C91.8631 25.325 91.0079 23.0452 89.1694 23.0452H84.0892C82.7942 23.0452 81.8443 21.828 82.1588 20.5718Z" fill="#F6B937"/>
<path d="M21.7162 20.5718L20.4874 15.6636C20.1316 14.2426 21.3811 12.9372 22.8163 13.2306L36.1803 15.9621C37.1161 16.1534 37.784 16.9825 37.7717 17.9376L37.195 62.4841C37.1884 62.9935 36.7736 63.4031 36.2641 63.4031C36.1548 63.4031 36.0464 63.3838 35.9438 63.3462L27.6176 60.2961C27.3606 60.2019 27.0868 60.1618 26.8136 60.1782L14.4615 60.9213C12.827 61.0196 11.7799 59.212 12.6782 57.8431L18.4201 49.0931C19.0984 48.0594 18.6799 46.6639 17.5446 46.1741L6.50397 41.4107C4.90174 40.7194 4.90174 38.4476 6.50396 37.7563L16.8216 33.3048C18.1656 32.7249 18.4447 30.9413 17.342 29.9786L13.3969 26.5342C12.0119 25.325 12.8671 23.0452 14.7056 23.0452H19.7858C21.0808 23.0452 22.0307 21.828 21.7162 20.5718Z" fill="#F6B937"/>
<circle cx="10.0734" cy="10.0734" r="10.0734" transform="matrix(-1 0 0 1 37.2461 6.79492)" fill="#F6B937"/>
<circle cx="6.34248" cy="6.34248" r="6.34248" transform="matrix(-1 0 0 1 34.2617 11.2715)" fill="#064CA1"/>
<circle cx="77.8624" cy="17.1612" r="10.0734" fill="#F6B937"/>
<circle cx="77.1159" cy="17.9069" r="6.34248" fill="#064CA1"/>
<ellipse cx="52.5189" cy="37.9708" rx="32.5033" ry="32.67" fill="#F6B937"/>
<circle cx="46.3802" cy="31.3372" r="5.97" fill="white"/>
<ellipse cx="56.8311" cy="31.3372" rx="6.13583" ry="5.97" fill="white"/>
<path d="M76.4297 16.207C77.0812 16.9264 77.7006 17.6752 78.2861 18.4512C72.0545 23.8144 68.1084 31.7601 68.1084 40.627C68.1085 48.2351 71.0148 55.1641 75.7764 60.3662C75.1032 61.067 74.3994 61.7379 73.666 62.376C68.4936 56.7454 65.3024 49.2657 65.1982 41.042L65.1953 40.627C65.1953 30.8569 69.5529 22.105 76.4297 16.207Z" fill="#064CA1"/>
<path d="M28.2646 16.3711C35.0319 22.2667 39.3096 30.9469 39.3096 40.627L39.3076 41.042C39.2044 49.1861 36.0716 56.5995 30.9873 62.2109C30.2588 61.5672 29.5594 60.8916 28.8916 60.1855C33.5561 55.0041 36.3964 48.1476 36.3965 40.627C36.3965 31.8571 32.5357 23.9892 26.4219 18.6289C27.0025 17.8484 27.6176 17.0953 28.2646 16.3711Z" fill="#064CA1"/>
<path d="M64.293 26.3633L75.238 29.3483" stroke="#064CA1" stroke-width="3.16881" stroke-linecap="round"/>
<path d="M67.9414 17.4082L77.8914 22.7149" stroke="#064CA1" stroke-width="3.16881" stroke-linecap="round"/>
<path d="M32.9411 41.2871L44.3906 44.2847M30.1289 47.9635L40.5741 53.8904" stroke="#064CA1" stroke-width="3.16881" stroke-linecap="round"/>
<ellipse cx="46.8813" cy="31.3366" rx="3.15083" ry="2.985" fill="#064CA1"/>
<circle cx="56.9967" cy="31.3366" r="2.985" fill="#064CA1"/>
<path d="M62.3008 27.7771L51.6875 29.3482V26.333L60.5569 22.7148L62.3008 27.7771Z" fill="#FFDF9C"/>
<path d="M40.7425 27.7771L51.6875 29.3482V26.333L42.541 22.7148L40.7425 27.7771Z" fill="#FFDF9C"/>
</g>
<defs>
<filter id="filter0_d_410_2130" x="0.000781059" y="0.000781059" width="103.873" height="75.9398" filterUnits="userSpaceOnUse" color-interpolation-filters="sRGB">
<feFlood flood-opacity="0" result="BackgroundImageFix"/>
<feColorMatrix in="SourceAlpha" type="matrix" values="0 0 0 0 0 0 0 0 0 0 0 0 0 0 0 0 0 0 127 0" result="hardAlpha"/>
<feOffset/>
<feGaussianBlur stdDeviation="2.65"/>
<feComposite in2="hardAlpha" operator="out"/>
<feColorMatrix type="matrix" values="0 0 0 0 0 0 0 0 0 0 0 0 0 0 0 0 0 0 0.08 0"/>
<feBlend mode="normal" in2="BackgroundImageFix" result="effect1_dropShadow_410_2130"/>
<feBlend mode="normal" in="SourceGraphic" in2="effect1_dropShadow_410_2130" result="shape"/>
</filter>
</defs>
</svg>