<svg xmlns="http://www.w3.org/2000/svg" width="76" height="94" viewBox="0 0 76 94" fill="none">
<g filter="url(#filter0_d_410_2105)">
<path d="M53.0867 9.06297C49.0446 18.0322 44.6758 29.3824 44.6758 35.6087V55.0659H51.2944C53.6714 53.0509 58.8713 47.3586 60.6549 40.7091C62.8844 32.3973 58.6531 28.5247 56.7783 21.5352C55.9973 18.6235 55.9799 14.2196 56.262 9.98245C56.3789 8.22531 53.8102 7.45744 53.0867 9.06297Z" fill="#646061"/>
<path d="M55.083 8.29297C55.7588 8.53004 56.3156 9.14314 56.2598 9.98242C55.9777 14.2195 55.9954 18.6235 56.7764 21.5352C58.6512 28.5246 62.8828 32.3972 60.6533 40.709C58.8697 47.3585 53.669 53.0504 51.292 55.0654H48.793C49.3012 54.0633 49.8814 53.1309 50.5186 52.4512C52.8258 49.9901 55.8127 41.3759 53.1338 31.3779C51.6325 25.7747 53.2057 16.0704 55.083 8.29297Z" fill="#575056"/>
<path d="M22.7297 9.06297C26.7718 18.0322 31.1406 29.3824 31.1406 35.6087V55.0659H24.522C22.145 53.0509 16.9451 47.3586 15.1615 40.7091C12.932 32.3973 17.1633 28.5247 19.0381 21.5352C19.8191 18.6235 19.8365 14.2196 19.5545 9.98245C19.4375 8.22531 22.0062 7.45744 22.7297 9.06297Z" fill="#646061"/>
<path d="M20.7295 8.29297C20.0537 8.53005 19.4969 9.14315 19.5527 9.98242C19.8348 14.2195 19.8171 18.6235 19.0361 21.5352C17.1613 28.5246 12.9297 32.3972 15.1592 40.709C16.9428 47.3585 22.1435 53.0504 24.5205 55.0654H27.0195C26.5113 54.0633 25.9311 53.1309 25.2939 52.4512C22.9867 49.9901 19.9998 41.3759 22.6787 31.3779C24.18 25.7747 22.6068 16.0705 20.7295 8.29297Z" fill="#575056"/>
<circle cx="37.9708" cy="55.668" r="32.67" fill="#646061"/>
<circle cx="31.8661" cy="48.999" r="6.10443" fill="white"/>
<circle cx="42.3779" cy="48.999" r="6.10443" fill="white"/>
<path d="M62.1934 33.7441C62.851 34.4702 63.4754 35.2266 64.0664 36.0098C57.7798 41.4205 53.7989 49.4357 53.7988 58.3809C53.7988 66.0566 56.7303 73.0476 61.5342 78.2959C60.8554 79.0025 60.1457 79.6789 59.4062 80.3223C54.1881 74.6419 50.9675 67.0972 50.8623 58.8008L50.8594 58.3809C50.8594 48.5241 55.2555 39.6944 62.1934 33.7441Z" fill="black"/>
<path d="M13.6016 33.9121C20.4289 39.86 24.7451 48.6169 24.7451 58.3828L24.7422 58.8018C24.6381 67.0178 21.4777 74.4961 16.3486 80.1572C15.6138 79.5079 14.9071 78.8275 14.2334 78.1152C18.9396 72.8877 21.8057 65.9706 21.8057 58.3828C21.8057 49.5352 17.9103 41.5982 11.7422 36.1904C12.328 35.4029 12.9487 34.6428 13.6016 33.9121Z" fill="black"/>
<path d="M50.0664 44.1387L61.1448 47.0778" stroke="black" stroke-width="2.93917" stroke-linecap="round"/>
<path d="M53.5703 34.8691L63.7444 40.4083" stroke="black" stroke-width="2.93917" stroke-linecap="round"/>
<path d="M18.2165 59.1738L29.833 62.1851M15.3633 65.8808L25.9609 71.8349" stroke="black" stroke-width="2.93917" stroke-linecap="round"/>
<ellipse cx="33.296" cy="49.7565" rx="2.76868" ry="2.92249" fill="#0D0D0D"/>
<circle cx="40.5241" cy="49.7565" r="2.92249" fill="#0D0D0D"/>
</g>
<defs>
<filter id="filter0_d_410_2105" x="0.000781059" y="2.88555" width="75.9398" height="90.7523" filterUnits="userSpaceOnUse" color-interpolation-filters="sRGB">
<feFlood flood-opacity="0" result="BackgroundImageFix"/>
<feColorMatrix in="SourceAlpha" type="matrix" values="0 0 0 0 0 0 0 0 0 0 0 0 0 0 0 0 0 0 127 0" result="hardAlpha"/>
<feOffset/>
<feGaussianBlur stdDeviation="2.65"/>
<feComposite in2="hardAlpha" operator="out"/>
<feColorMatrix type="matrix" values="0 0 0 0 0 0 0 0 0 0 0 0 0 0 0 0 0 0 0.08 0"/>
<feBlend mode="normal" in2="BackgroundImageFix" result="effect1_dropShadow_410_2105"/>
<feBlend mode="normal" in="SourceGraphic" in2="effect1_dropShadow_410_2105" result="shape"/>
</filter>
</defs>
</svg>